<?xml version="1.0" standalone="no"?><!DOCTYPE svg PUBLIC "-//W3C//DTD SVG 1.1//EN" "http://www.w3.org/Graphics/SVG/1.1/DTD/svg11.dtd"><svg t="1563502942231" class="icon" viewBox="0 0 1024 1024" version="1.1" xmlns="http://www.w3.org/2000/svg" p-id="3106" xmlns:xlink="http://www.w3.org/1999/xlink" width="200" height="200"><defs><style type="text/css"></style></defs><path d="M271.5904 88.32h571.48416c35.31264 0 106.68032-11.91936 106.68032 42.33216V695.48032c0 19.95264 1.35168 39.8848-17.03936 53.63712-12.94336 9.68192-28.93312 8.0128-44.05248 8.0128H252.83072c-32.93184 0-72.832 6.20032-105.17504-2.11456-40.2176-10.34752-28.5696-79.16032-28.5696-109.28128V443.12064 130.1248c0-33.01888-51.2-33.01888-51.2 0v558.92992c0 15.88736-0.12288 30.86848 2.28352 46.65856 6.58944 43.16672 51.12832 72.61696 92.37504 72.61696h737.8176c62.848 0 100.58752-45.11744 100.58752-105.57952V527.7696 132.95104c0-43.42784-26.04544-77.2096-66.15552-91.88864-15.0016-5.48864-33.24928-3.94752-49.12128-3.94752H271.58528c-33.01376 0.00512-33.01376 51.20512 0.00512 51.20512z" p-id="3107"></path><path d="M534.42048 992.98816v-211.84512" p-id="3108"></path><path d="M560.02048 992.98816v-211.84512c0-33.01376-51.18976-33.01376-51.18976 0v211.84512c0 33.01888 51.18976 33.01888 51.18976 0z" p-id="3109"></path><path d="M202.88512 992.98816h663.08096" p-id="3110"></path><path d="M202.88512 1018.58816h663.07584c33.01376 0 33.01376-51.2 0-51.2H202.88512c-33.01376 0-33.01376 51.2 0 51.2z" p-id="3111"></path><path d="M312.54528 384.50688V600.576" p-id="3112"></path><path d="M286.94528 384.50688V600.576c0 33.01376 51.2 33.01376 51.2 0V384.50688c0-33.01888-51.2-33.01888-51.2 0z" p-id="3113"></path><path d="M626.78528 384.50688V600.576" p-id="3114"></path><path d="M601.18528 384.50688V600.576c0 33.01376 51.2 33.01376 51.2 0V384.50688c0-33.01888-51.2-33.01888-51.2 0z" p-id="3115"></path><path d="M769.3056 384.50688V600.576" p-id="3116"></path><path d="M743.7056 384.50688V600.576c0 33.01376 51.2 33.01376 51.2 0V384.50688c0-33.01888-51.2-33.01888-51.2 0z" p-id="3117"></path><path d="M480.56832 264.50432V600.576" p-id="3118"></path><path d="M454.96832 264.50432V600.576c0 33.01376 51.19488 33.01376 51.19488 0V264.50432c0-33.01888-51.19488-33.01888-51.19488 0z" p-id="3119"></path></svg>