<?xml version="1.0" standalone="no"?><!DOCTYPE svg PUBLIC "-//W3C//DTD SVG 1.1//EN" "http://www.w3.org/Graphics/SVG/1.1/DTD/svg11.dtd"><svg t="1563502824503" class="icon" viewBox="0 0 1024 1024" version="1.1" xmlns="http://www.w3.org/2000/svg" p-id="762" xmlns:xlink="http://www.w3.org/1999/xlink" width="200" height="200"><defs><style type="text/css"></style></defs><path d="M358.238199 517.417454a36.939815 36.939815 0 0 0-36.83869 36.83869v246.356931a36.954262 36.954262 0 0 0 36.83869 36.83869 36.939815 36.939815 0 0 0 36.838689-36.83869V554.256144a36.939815 36.939815 0 0 0-36.838689-36.83869zM798.670015 249.000649a36.939815 36.939815 0 0 0 52.094241 0l69.343416-69.343416a36.939815 36.939815 0 0 0 0-52.094241 36.939815 36.939815 0 0 0-52.094241 0l-69.343416 69.343416a36.939815 36.939815 0 0 0 0 52.094241zM196.971417 249.000649a36.939815 36.939815 0 0 0 52.094241 0 36.939815 36.939815 0 0 0 0-52.094241l-69.343415-69.343416a36.939815 36.939815 0 0 0-52.094242 0 36.939815 36.939815 0 0 0 0 52.094241zM511.992777 171.653847a36.939815 36.939815 0 0 0 36.838689-36.838689V36.83869A36.939815 36.939815 0 0 0 511.992777 0a36.939815 36.939815 0 0 0-36.83869 36.83869v97.976468a36.954262 36.954262 0 0 0 36.83869 36.838689z" fill="#2c2c2c" p-id="763"></path><path d="M980.884287 950.322621H868.446827V544.764764c0-196.863068-159.590982-356.45405-356.45405-356.45405S155.538726 347.901696 155.538726 544.764764v405.557857H43.115713A36.954262 36.954262 0 0 0 6.277024 987.16131a36.939815 36.939815 0 0 0 36.838689 36.83869h937.768574a36.939815 36.939815 0 0 0 36.838689-36.83869 36.954262 36.954262 0 0 0-36.838689-36.838689zM229.216106 544.764764a282.776671 282.776671 0 0 1 565.553342 0V941.914732H229.216106z" fill="#2c2c2c" p-id="764"></path></svg>